<?xml version="1.0" encoding="UTF-8" standalone="no"?>
<?xml-stylesheet type="text/css" href="../keyvisual.css" ?>
<svg width="1921px" height="1149px" viewBox="0 0 1921 1149" version="1.1" xmlns="http://www.w3.org/2000/svg" xmlns:xlink="http://www.w3.org/1999/xlink" xmlns:sketch="http://www.bohemiancoding.com/sketch/ns">
    <!-- Generator: Sketch 3.3.3 (12081) - http://www.bohemiancoding.com/sketch -->
    <title>keyvisual_hdmi</title>
    <desc>Created with Sketch.</desc>
    <defs></defs>
    <g id="Page-1" stroke="none" stroke-width="1" fill="none" fill-rule="evenodd" sketch:type="MSPage">
        <g id="keyvisual_hdmi" sketch:type="MSLayerGroup">
            <rect id="Rectangle-path" fill="#F5F2E6" sketch:type="MSShapeGroup" x="0.5" y="21.5" width="1920" height="1080"></rect>
            <path d="M1474,787 L708,589 L903.6,167 L1314,150 L1474,787 Z" id="red_backdrop" fill="#FECCCC" sketch:type="MSShapeGroup"></path>
            <path d="M1456.9,418.6 L1615.5,690.6 L1267.3,1021.7 L675,653.3 L675,651.7 C935.1,574 1456.9,418.6 1456.9,418.6 L1456.9,418.6 Z" id="blue_backdrop" fill="#9CC2FE" sketch:type="MSShapeGroup"></path>
            <path d="M1090.8,546.2 L1066,1148.2 L252.9,567.9 L569.4,0 L1090.8,546.2 Z" id="yellow_backdrop" fill="#FAE49E" sketch:type="MSShapeGroup"></path>
            <g id="logo" transform="translate(586.000000, 356.000000)" sketch:type="MSShapeGroup">
                <g id="Group" transform="translate(207.000000, 304.000000)" fill="#191919">
                    <path d="M0.8,16.1 C0.8,6.5 8,0.1 17.3,0.1 C24.1,0.1 28,3.8 30.2,7.7 L24.5,10.5 C23.2,8 20.4,6 17.3,6 C11.6,6 7.6,10.3 7.6,16.2 C7.6,22 11.7,26.4 17.3,26.4 C20.5,26.4 23.2,24.4 24.5,21.9 L30.2,24.6 C28,28.5 24.1,32.2 17.3,32.2 C8,32.1 0.8,25.6 0.8,16.1 L0.8,16.1 Z" id="Shape"></path>
                    <path d="M55.9,16.1 C55.9,6.8 62.7,0.1 72.1,0.1 C81.4,0.1 88.2,6.8 88.2,16.1 C88.2,25.4 81.4,32.1 72.1,32.1 C62.7,32.1 55.9,25.4 55.9,16.1 L55.9,16.1 Z M81.4,16.1 C81.4,10.3 77.7,5.9 72,5.9 C66.2,5.9 62.6,10.3 62.6,16.1 C62.6,21.9 66.3,26.3 72,26.3 C77.8,26.3 81.4,21.9 81.4,16.1 L81.4,16.1 Z" id="Shape"></path>
                    <path d="M137.4,31.6 L122.6,11.4 L122.6,31.6 L116,31.6 L116,0.6 L122.8,0.6 L137.1,20 L137.1,0.6 L143.7,0.6 L143.7,31.6 L137.4,31.6 L137.4,31.6 Z" id="Shape"></path>
                    <path d="M173.1,31.6 L173.1,0.6 L195,0.6 L195,6.4 L179.7,6.4 L179.7,12.9 L194.7,12.9 L194.7,18.7 L179.7,18.7 L179.7,31.6 L173.1,31.6 L173.1,31.6 Z" id="Shape"></path>
                    <path d="M219.6,28.3 C219.6,26.3 221.3,24.5 223.4,24.5 C225.5,24.5 227.2,26.2 227.2,28.3 C227.2,30.3 225.5,32.1 223.4,32.1 C221.3,32.1 219.6,30.3 219.6,28.3 L219.6,28.3 Z" id="Shape"></path>
                    <path d="M255.6,31.6 L255.6,0.6 L277.5,0.6 L277.5,6.4 L262.2,6.4 L262.2,12.9 L277.2,12.9 L277.2,18.7 L262.2,18.7 L262.2,25.8 L277.5,25.8 L277.5,31.6 L255.6,31.6 L255.6,31.6 Z" id="Shape"></path>
                    <path d="M305.9,19.2 L305.9,0.6 L312.6,0.6 L312.6,19 C312.6,23.3 315.1,26.3 319.9,26.3 C324.7,26.3 327.1,23.3 327.1,19 L327.1,0.6 L333.8,0.6 L333.8,19.2 C333.8,26.9 329.3,32.1 319.8,32.1 C310.3,32.1 305.9,26.8 305.9,19.2 L305.9,19.2 Z" id="Shape"></path>
                </g>
                <g id="Group" stroke="#000000" stroke-width="5">
                    <path d="M382.8,25.7 C405.5,25.8 422.4,30.2 458.9,51.3 L472.5,31.5 C447.6,11.5 417.2,0.3 381.4,0.3 C331.3,0.3 295.6,36.7 295.6,81.2 L295.6,81.9 C295.6,130.6 327.5,144.2 376.9,156.9 C417.9,167.4 426.3,174.4 426.3,188.1 L426.3,188.8 C426.3,203.2 413,211.9 390.9,211.9 C371.4,211.9 354.3,206.3 338.3,196.8 L324.2,216.3 C343.4,227.4 365.6,235.9 388.5,235.8 C454.6,235.5 453.1,194.8 453.1,185.8 C453.1,151.1 420.1,140 390,133.2 C351.7,125.9 320.7,112.3 321.3,78.5 C321.9,44.6 354.2,25.6 382.8,25.7 L382.8,25.7 Z" id="Shape" fill="#FFFFFF"></path>
                    <path d="M402.2,109.3 C359.8,98.4 349.3,93.2 349.3,77.1 L349.3,76.4 C349.3,64.5 360.2,51.5 380.8,51.5 C401.5,51.5 422.8,57.1 444.5,72.2 L458.9,51.4 C422.5,30.3 405.5,25.9 382.8,25.8 C354.2,25.6 321.9,44.7 321.3,78.5 C320.7,112.3 351.7,125.9 390,133.2 C420,140 453.1,151.1 453.1,185.8 C453.1,194.8 454.6,235.5 388.5,235.8 C365.6,235.9 343.5,227.4 324.2,216.3 L309,237.4 C333.8,252.3 361.9,259.6 389.9,259.6 C442.8,259.6 479.9,232.3 479.9,183.6 L479.9,182.9 C479.9,140.1 451.9,122.2 402.2,109.3 L402.2,109.3 Z" id="Shape" fill="#EA3939"></path>
                    <path d="M338.3,196.8 C331.3,192.6 324.5,187.7 317.8,182.2 L285.9,220.4 C293.2,226.9 300.9,232.5 309,237.4 L338.3,196.8 L338.3,196.8 Z" id="Shape" fill="#2176FF"></path>
                    <circle id="Oval" fill="#FCC720" cx="130.3" cy="130.5" r="21.2"></circle>
                    <path d="M38.1,223.1 C13.2,198.3 0.8,167.3 0.8,130 C0.9,93.5 13.4,62.8 38.2,38 C63,13.1 93.8,0.7 130.5,0.7 C167.6,0.7 199.4,12.2 225.9,35.3 L191.3,73.2 C173.6,59.3 153.4,52.4 130.5,52.4 C107.2,52.5 88.4,59.8 74.1,74.2 C59.8,88.6 52.7,107.1 52.7,129.6 C52.8,153.7 60,172.9 74.3,187.1 C88.6,201.3 107.4,208.4 130.8,208.4 C154.1,208.4 174.3,201.5 191.2,187.8 L225.8,225.7 C199.4,248.8 167.6,260.3 130.4,260.3 C93.8,260.3 63,247.9 38.1,223.1 L38.1,223.1 Z" id="Shape" fill="#FFFFFF"></path>
                    <path d="M209.1,207.4 C186.4,225.4 161.5,232.8 130.2,232.8 C99,232.8 73.8,223.5 54.6,204.9 C35.4,186.3 25.8,161.2 25.6,129.6 C25.6,100.1 35.1,76 54.2,57.1 C73.3,38.2 97.2,25.9 128.4,25.7 C159,25.7 184.9,35.8 208.6,53.9 L191.1,73.1 C173.4,59.2 153.2,52.3 130.3,52.3 C107,52.4 88.2,59.7 73.9,74.1 C59.6,88.5 52.5,107 52.5,129.5 C52.6,153.6 59.8,172.8 74.1,187 C88.4,201.2 107.2,208.3 130.6,208.3 C153.9,208.3 174.1,201.4 191,187.7 L208.6,206.9 L209.1,207.4 L209.1,207.4 Z" id="Shape" fill="#2176FF"></path>
                    <path d="M639.5,156.9 C680.5,167.4 688.9,174.4 688.9,188.1 L688.9,188.8 C688.9,203.2 675.6,211.9 653.5,211.9 C625.5,211.9 602.3,200.3 580.2,182.1 L564.2,201.3 L564.2,201.3 L564.2,201.3 C587.5,218.8 618.6,235.9 651,235.8 C717.1,235.5 715.6,194.8 715.6,185.8 C715.6,151 682.5,140 652.5,133.1 C614.2,125.8 583.1,112.2 583.7,78.3 C584.3,44.4 616.6,25.4 645.3,25.6 L645.3,25.6 C662.2,25.7 675.9,28.1 696.7,38 L712.4,16.6 C692.3,6 669.5,0.2 643.9,0.2 C593.8,0.2 558,36.7 558,81.2 L558,81.9 C558.2,130.6 590.1,144.3 639.5,156.9 L639.5,156.9 Z" id="Shape" fill="#FFFFFF"></path>
                    <path d="M664.8,109.2 C622.4,98.3 611.9,93.1 611.9,77 L611.9,76.3 C611.9,64.4 622.8,51.4 643.4,51.4 C656,51.4 668.8,53.5 681.9,58.5 L696.9,38 C676,28.1 662.3,25.7 645.5,25.6 C616.9,25.4 584.6,44.5 583.9,78.3 C583.3,112.2 614.3,125.8 652.7,133.1 C682.8,139.9 715.8,151 715.8,185.8 C715.8,194.8 717.3,235.5 651.2,235.8 C618.7,235.9 587.6,218.8 564.3,201.3 L548.4,220.3 C577.8,246.6 615.4,259.6 652.5,259.6 C705.4,259.6 742.6,232.3 742.6,183.5 L742.6,182.8 C742.6,140.1 714.6,122.2 664.8,109.2 L664.8,109.2 Z" id="Shape" fill="#FCC720"></path>
                    <path d="M712.7,16.6 L681.9,58.5 C690.3,61.7 698.8,66.2 707.3,72.1 L721.7,51.2 L721.7,51.2 L735.3,31.4 C728.2,25.7 720.6,20.8 712.7,16.6 L712.7,16.6 Z" id="Shape" fill="#EA3939"></path>
                </g>
            </g>
            <g id="blue_germ_worm" transform="translate(222.000000, 636.000000)" sketch:type="MSShapeGroup">
                <g id="Group">
                    <g id="Shape">
                        <path d="M4,253.1 L233,5.7 L320.3,339.1 L82.5,359.4 L4,253.1 Z" fill="#2176FF"></path>
                        <path d="M231.8,10.8 L317.1,336.9 L83.6,356.9 L7.2,253.3 L231.8,10.8 L231.8,10.8 Z M234.3,0.7 L228.1,7.4 L3.6,249.9 L0.8,252.9 L3.3,256.2 L79.7,359.8 L81.4,362.1 L84.2,361.9 L317.7,341.9 L323.6,341.4 L322.1,335.7 L236.8,9.6 L234.3,0.7 L234.3,0.7 Z" fill="#000000"></path>
                    </g>
                    <path d="M220.2,131.7 C219.8,130.3 220.2,128.7 221.3,127.7 C222.3,126.8 223.5,126.6 224.8,127.1 C231.7,129.8 239.1,129.1 245,125.2 C246,124.5 247.2,124.4 248.4,124.8 C249.6,125.2 250.6,126.2 250.9,127.4 C251.3,128.7 250.8,130 249.6,130.9 C241.3,136.5 231.4,137.6 222.3,134 C221.3,133.5 220.5,132.7 220.2,131.7 L220.2,131.7 L220.2,131.7 Z" id="Shape" fill="#0066A8"></path>
                    <path d="M142.8,224.3 C139.3,212.6 139.9,200.6 144.7,189.6 C145.3,188.1 146.7,187.3 148.3,187.4 C149.9,187.5 151.3,188.5 151.7,189.8 C151.9,190.5 151.9,191.3 151.5,192.1 C147.3,201.7 146.6,212 149.6,221.7 C149.7,222.1 149.9,222.8 149.9,222.8 C150.6,225.2 149.1,227.2 147.3,227.7 C145.8,228.2 144,227.7 143.3,225.7 C143.1,225.2 142.9,224.7 142.8,224.3 L142.8,224.3 Z" id="Shape" fill="#0066A8"></path>
                    <path d="M44.6,257.1 C44.2,255.6 44.6,253.8 46.6,253.1 C56.9,249.4 67.5,248.3 78,249.8 C79.4,250 80.6,251 81,252.3 C81.4,253.6 81.1,255 80.3,255.9 C79.6,256.7 78.5,257.1 77.3,256.9 C67.7,255.5 58.4,256.4 49.6,259.6 C48.6,260 47.6,259.9 46.7,259.5 C45.7,259.1 44.9,258.2 44.6,257.1 L44.6,257.1 L44.6,257.1 Z" id="Shape" fill="#0066A8"></path>
                    <path d="M137.5,279.4 C137.2,278.4 137.4,277.3 138.1,276.4 C145,267.7 150.7,258.2 155,248.2 C155.6,246.7 157,245.9 158.6,246 C160.2,246.1 161.6,247.1 162,248.4 C162.2,249.1 162.2,249.9 161.8,250.7 C157.2,261.5 151.2,271.6 144,280.6 C143.1,281.7 141.8,282.2 140.4,281.9 C139,281.7 137.8,280.7 137.5,279.4 L137.5,279.4 L137.5,279.4 Z" id="Shape" fill="#0066A8"></path>
                    <path d="M54.3,300.7 C53.9,299.4 54.2,298 55.2,297 C60.5,291.7 64.1,285.2 65.9,277.5 C66.3,276 67.3,275.1 68.8,275 C70.5,274.9 72.2,276.1 72.7,277.8 C72.9,278.4 72.9,279.1 72.7,279.8 C70.7,288.4 66.4,296 59.9,302.4 C59,303.3 57.9,303.6 56.8,303.3 C55.7,303.1 54.7,302 54.3,300.7 L54.3,300.7 L54.3,300.7 Z" id="Shape" fill="#0066A8"></path>
                    <path d="M220.3,53.3 C219.9,52 220.2,50.6 221.2,49.6 C223.5,47.3 224.4,43.7 223.5,40.5 C223.4,40.3 223.2,39.7 223.2,39.7 C222.5,37.5 224,35.6 225.7,35 C227.2,34.5 229.1,34.9 229.9,37 C230,37.4 230.2,37.8 230.3,38.1 C232.1,44.2 230.5,50.5 226,55 C225.1,55.9 224,56.2 222.9,55.9 C221.7,55.7 220.7,54.7 220.3,53.3 L220.3,53.3 Z" id="Shape" fill="#0066A8"></path>
                    <path d="M279.6,308.6 C279.2,307.3 279.7,305.9 280.9,305.1 C286.4,301.1 293.3,300.6 299.3,303.9 C300.1,304.3 300.7,305 300.9,305.8 C301.3,307.1 300.7,308.6 299.5,309.6 C298.3,310.6 296.7,310.8 295.3,310 C292.3,308.3 288.3,308.6 285.5,310.7 C284.5,311.4 283.3,311.6 282.2,311.2 C280.9,310.8 279.9,309.7 279.6,308.6 L279.6,308.6 L279.6,308.6 Z" id="Shape" fill="#0066A8"></path>
                    <path d="M82.6,202.5 C81,197.2 81.3,191.6 83.3,186.6 C83.9,185.1 85.2,184.3 86.8,184.4 C88.4,184.5 89.8,185.5 90.2,186.9 C90.4,187.6 90.4,188.4 90,189.2 C88.5,192.8 88.3,196.7 89.4,200.4 C90.7,204.7 93.7,208.2 97.7,210.4 C98.5,210.8 99.1,211.5 99.3,212.3 C99.7,213.6 99.1,215.1 98,216 C96.7,217 95.2,217.2 93.8,216.5 C88.4,213.5 84.4,208.6 82.6,202.5 L82.6,202.5 Z" id="Shape" fill="#0066A8"></path>
                    <path d="M170.7,161.4 C170.3,159.9 170.7,158.1 172.5,157.1 C189.3,148.9 210.1,152.8 222.9,166.5 C223.3,166.9 223.6,167.4 223.7,167.9 C224.2,169.4 223.4,171 221.9,171.9 C220.4,172.8 218.6,172.5 217.4,171.3 C206.8,160 189.6,156.8 175.5,163.7 C174.3,164.3 173.3,164.1 172.6,163.8 C171.8,163.4 171,162.5 170.7,161.4 L170.7,161.4 L170.7,161.4 Z" id="Shape" fill="#0066A8"></path>
                    <path d="M128.1,167.8 C128,167.4 127.9,166.9 128,166.5 C128.9,149.2 144,135.2 161.5,135.2 C163,135.2 164.2,136 164.6,137.4 C165,138.6 164.7,139.9 164,140.9 C163.3,141.9 162.2,142.4 161,142.4 C147.5,142.4 136,153.4 135.2,167.1 C135.1,168.8 133.9,170.1 132.2,170.3 C130.6,170.5 128.6,169.7 128.1,167.8 L128.1,167.8 L128.1,167.8 Z" id="Shape" fill="#0066A8"></path>
                    <path d="M172.2,215.8 C172,215.1 171.8,214.4 171.7,213.7 C171.3,211.5 172.9,210 174.4,209.7 C176.1,209.3 178.1,210 178.7,212 C178.7,212.2 178.8,212.3 178.8,212.5 C178.9,212.9 179,213.3 179.1,213.7 C181,219.9 189,221.3 194.4,222.2 C195.8,222.4 196.9,223.4 197.3,224.8 C197.7,226.1 197.4,227.5 196.6,228.5 C195.9,229.3 194.8,229.7 193.6,229.5 C185.1,228 175,225.1 172.2,215.8 L172.2,215.8 Z" id="Shape" fill="#0066A8"></path>
                    <path d="M196.6,195 C196.2,193.6 196.6,192 197.7,191.1 C198.7,190.2 200,190 201.2,190.5 C214.8,195.7 221.8,208.7 227.8,221.5 C227.9,221.7 228,221.9 228,222 C228.6,224 227.3,225.7 225.7,226.3 C224.2,226.9 222.2,226.6 221.2,224.5 C216.5,214.4 210.6,201.8 198.7,197.3 C197.7,196.9 196.9,196.1 196.6,195 L196.6,195 Z" id="Shape" fill="#0066A8"></path>
                    <path d="M90,272.7 C89.7,271.6 89.8,270.5 90.3,269.6 C90.8,268.8 91.6,268.2 92.7,268 C101.4,266.3 108,260.2 110.5,251.5 C110.9,250 112.1,249.1 113.6,249.1 C115.3,249.1 116.9,250.2 117.4,251.8 C117.6,252.5 117.6,253.2 117.4,253.9 C114.3,264.8 105.3,273 94,275.1 C91.8,275.5 90.4,274.2 90,272.7 L90,272.7 L90,272.7 Z" id="Shape" fill="#0066A8"></path>
                    <path d="M90.8,332.5 C86.9,319.7 102.2,312.1 109,309.5 C110,309.1 111,309.1 111.9,309.6 C112.9,310.1 113.6,311 113.9,312 C114.3,313.5 113.9,315.3 111.9,316.1 C104.8,318.9 95.5,323.5 97.7,330.6 C97.8,331.1 98,331.5 98.3,332 C98.4,332.2 98.5,332.4 98.5,332.6 C99.1,334.6 97.8,336.2 96.3,336.8 C94.8,337.4 92.7,337.1 91.7,335.1 C91.4,334.2 91.1,333.3 90.8,332.5 L90.8,332.5 L90.8,332.5 Z" id="Shape" fill="#0066A8"></path>
                    <path d="M136.7,303.6 C136.3,302.4 136.6,301.1 137.3,300.1 C138,299.2 139.1,298.7 140.3,298.7 C154,299 166.6,304.1 177,313.6 C177.5,314 177.8,314.5 178,315.1 C178.4,316.4 177.7,317.9 176.4,318.8 C174.8,319.8 173,319.6 171.7,318.4 C163,310.4 152,306.1 139.9,305.9 C138.2,305.8 137.1,304.9 136.7,303.6 L136.7,303.6 Z" id="Shape" fill="#0066A8"></path>
                    <path d="M167.9,277.9 C167.6,276.8 167.7,275.7 168.2,274.8 C168.7,273.9 169.5,273.4 170.5,273.1 C180.8,270.8 189.3,264.4 194.7,255.1 C195.4,253.9 196.5,253.3 197.8,253.4 C199.3,253.6 200.6,254.7 201.1,256.2 C201.4,257.2 201.3,258.2 200.7,259.1 C194.5,270 184.2,277.5 171.8,280.3 C169.7,280.7 168.3,279.4 167.9,277.9 L167.9,277.9 L167.9,277.9 Z" id="Shape" fill="#0066A8"></path>
                    <path d="M225.7,284.9 C225.2,283.2 225.9,281.3 227.4,280.4 C228.6,279.6 230,279.8 231.1,280.8 C241.5,290.1 255.7,286.2 267.1,283.1 C269.2,282.5 270.6,283.8 271.1,285.3 C271.4,286.3 271.3,287.5 270.8,288.4 C270.3,289.3 269.5,289.9 268.5,290.2 C254.6,294 238.7,297.2 226.9,286.6 C226.2,286.2 225.9,285.6 225.7,284.9 L225.7,284.9 L225.7,284.9 Z" id="Shape" fill="#0066A8"></path>
                    <path d="M239.1,251.2 C238.9,250.5 238.9,249.8 239.1,249.1 C242.7,237.2 249.3,227 258.7,218.8 C259.6,218 260.8,217.7 261.9,218 C263.1,218.3 264.1,219.4 264.5,220.6 C264.9,222 264.5,223.3 263.4,224.2 C255.1,231.5 249.2,240.7 246,251.4 C245.5,252.9 244.4,253.8 242.9,253.8 C241.2,253.9 239.6,252.7 239.1,251.2 L239.1,251.2 L239.1,251.2 Z" id="Shape" fill="#0066A8"></path>
                    <path d="M209.3,308.1 C208.7,306.2 209.9,304.4 211.3,303.7 C212.8,302.9 214.4,303.3 215.5,304.7 C215.5,304.7 222.3,313.7 224.3,316.3 L225.1,317.4 C227.3,320.4 230.1,324.2 233.9,323.8 C236,323.5 237.4,324.9 237.8,326.4 C238.1,327.5 238,328.6 237.4,329.5 C237,330.1 236.3,330.8 235,330.9 C225.3,332.1 218.6,322.1 213.3,314.2 C212.1,312.4 211,310.8 209.9,309.4 C209.6,309 209.4,308.6 209.3,308.1 L209.3,308.1 L209.3,308.1 Z" id="Shape" fill="#0066A8"></path>
                    <path d="M191.8,106.3 C191.7,106.1 191.7,105.9 191.7,105.6 C190.2,93 190.2,79.1 202.1,72.1 C203.3,71.4 204.3,71.6 204.9,71.8 C205.9,72.2 206.6,73.1 207,74.2 C207.5,76 206.9,77.7 205.3,78.6 C196.3,83.8 197.8,96.2 198.8,104.4 C199.1,106.7 197.5,108.1 195.8,108.4 C193.9,108.9 192.3,108 191.8,106.3 L191.8,106.3 L191.8,106.3 Z" id="Shape" fill="#0066A8"></path>
                    <path d="M202.7,301.4 C190.6,309.4 179.7,306.9 172.4,305.2 C166.3,303.8 164.7,303.6 162,305.4 C159.3,307.2 158.8,308.7 157.8,314.9 C156.5,322.2 154.6,333.3 142.5,341.3 C130.4,349.3 119.5,346.8 112.2,345.1 C106.1,343.7 104.5,343.5 101.8,345.3 C99.1,347.1 98.6,348.6 97.6,354.8 C96.3,362.1 94.4,373.2 82.3,381.2 C70.2,389.2 59.3,386.7 52,385 C45.9,383.6 44.3,383.4 41.6,385.2 C38.9,387 38.4,388.5 37.4,394.7 C36.1,402 34.2,413.1 22.1,421.1 L8,399.9 C10.7,398.1 11.2,396.6 12.2,390.4 C13.5,383.1 15.4,372 27.5,364 C39.6,356 50.5,358.5 57.8,360.2 C63.9,361.6 65.5,361.8 68.2,360 C70.9,358.2 71.4,356.7 72.4,350.5 C73.7,343.2 75.6,332.1 87.7,324.1 C99.8,316.1 110.7,318.6 118,320.3 C124.1,321.7 125.7,321.9 128.4,320.1 C131.1,318.3 131.6,316.8 132.6,310.6 C133.9,303.3 135.8,292.2 147.9,284.2 C160,276.2 170.9,278.7 178.2,280.4 C184.3,281.8 185.9,282 188.6,280.2 L202.7,301.4 L202.7,301.4 Z" id="yellow_worm" stroke="#000000" stroke-width="5" fill="#FCC720"></path>
                </g>
            </g>
            <g id="thermometer" transform="translate(284.000000, 266.000000)" sketch:type="MSShapeGroup">
                <g id="Group">
                    <path d="M180.9,192.5 L173.9,198.8 L9.7,15.6 L16.7,9.3 L180.9,192.5 L180.9,192.5 Z" id="Shape" stroke="#000000" fill="#1D1D1B"></path>
                    <path d="M26.7,27.7 C20.3,33.5 10.3,32.9 4.6,26.5 C-1.2,20.1 -0.6,10.1 5.8,4.4 C12.2,-1.4 22.2,-0.8 27.9,5.6 C33.7,12 33.2,21.9 26.7,27.7 L26.7,27.7 Z" id="Shape" fill="#2176FF"></path>
                    <path d="M190.9,210.8 C184.5,216.6 174.5,216 168.8,209.6 C163,203.2 163.6,193.2 170,187.5 C176.4,181.7 186.4,182.3 192.1,188.7 C197.9,195.2 197.4,205.1 190.9,210.8 L190.9,210.8 Z" id="Shape" fill="#EA3939"></path>
                </g>
            </g>
            <g id="red_ring" transform="translate(222.000000, 512.000000)" sketch:type="MSShapeGroup">
                <g id="Group">
                    <path d="M52.5,0.8 C23.5,0.8 0,24.3 0,53.3 C0,82.3 23.5,105.8 52.5,105.8 C81.5,105.8 105,82.3 105,53.3 C105,24.3 81.5,0.8 52.5,0.8 L52.5,0.8 Z M52.5,86.9 C33.9,86.9 18.9,71.8 18.9,53.3 C18.9,34.8 34,19.7 52.5,19.7 C71,19.7 86.1,34.8 86.1,53.3 C86.1,71.8 71.1,86.9 52.5,86.9 L52.5,86.9 Z" id="Shape" fill="#EA3939"></path>
                    <g transform="translate(20.000000, 51.000000)" id="Shape">
                        <path d="M13.6,23.9 C7.9,23.9 3.3,19.3 3.3,13.6 C3.3,7.9 7.9,3.3 13.6,3.3 C19.3,3.3 23.9,7.9 23.9,13.6 C23.9,19.3 19.3,23.9 13.6,23.9 L13.6,23.9 Z" fill="#FFFFFF"></path>
                        <path d="M13.6,5.7 C17.9,5.7 21.4,9.2 21.4,13.5 C21.4,17.8 17.9,21.3 13.6,21.3 C9.3,21.3 5.8,17.8 5.8,13.5 C5.8,9.2 9.3,5.7 13.6,5.7 L13.6,5.7 Z M13.6,0.7 C6.5,0.7 0.8,6.5 0.8,13.5 C0.8,20.6 6.6,26.3 13.6,26.3 C20.7,26.3 26.4,20.5 26.4,13.5 C26.4,6.5 20.7,0.7 13.6,0.7 L13.6,0.7 L13.6,0.7 Z" fill="#000000"></path>
                    </g>
                </g>
            </g>
            <g id="yellow_zigzag_1_" transform="translate(394.000000, 145.000000)" fill="#FCC720" sketch:type="MSShapeGroup">
                <path d="M78.2,10 L95.8,38.3 L123.5,19.9 L143.8,52.5 L135.5,57.6 L120.5,33.6 L92.8,52 L75.2,23.8 L47.4,42.2 L29.8,13.9 L6.2,29.5 L0.8,21.4 L32.8,0.2 L50.4,28.5 L78.2,10 Z" id="Shape"></path>
            </g>
            <g id="yellow_zigzag" transform="translate(1740.000000, 677.000000)" fill="#FCC720" sketch:type="MSShapeGroup">
                <path d="M49.7,23.4 L81.8,32.4 L89.9,0.1 L126.8,10.5 L124.2,20 L96.9,12.3 L88.8,44.6 L56.8,35.5 L48.6,67.8 L16.6,58.8 L9.7,86.2 L0.2,83.8 L9.5,46.6 L41.6,55.7 L49.7,23.4 Z" id="Shape"></path>
            </g>
            <path d="M1225.6,89 L1175.4,216 L1190.2,222.1 L1240.4,95.1 L1225.6,89 L1225.6,89 Z" id="red_stick" fill="#EA3939" sketch:type="MSShapeGroup"></path>
            <g id="yellow_worm" transform="translate(1265.000000, 136.000000)" stroke="#2176FF" stroke-width="18" sketch:type="MSShapeGroup">
                <path d="M0.9,127.3 C16.7,114 21.9,120.2 37.7,106.9 C53.5,93.6 48.4,87.5 64.2,74.2 C80,60.9 85.2,67.1 101,53.8 C116.8,40.5 111.7,34.4 127.5,21.1 C143.3,7.8 148.5,14 164.3,0.7" id="Shape"></path>
            </g>
            <g id="yellow_ring" transform="translate(1590.000000, 136.000000)" sketch:type="MSShapeGroup">
                <path d="M34,17.5 C-3.2,45.3 -10.9,98 16.9,135.2 C44.7,172.4 97.4,180.1 134.6,152.3 C171.8,124.5 179.5,71.8 151.7,34.6 C123.9,-2.6 71.2,-10.3 34,17.5 L34,17.5 Z M116.6,128.1 C92.8,145.9 59,141 41.2,117.2 C23.4,93.4 28.3,59.6 52.1,41.8 C75.9,24 109.7,28.9 127.5,52.7 C145.3,76.5 140.4,110.3 116.6,128.1 L116.6,128.1 Z" id="Shape" stroke="#202020" stroke-width="5" fill="#FCC720"></path>
                <path d="M24,38.8 C23.9,39.5 25,39.6 25.7,39.3 C34.2,36.2 40.6,29.3 46.3,22.3 C46.7,21.8 47.2,21.2 47.8,20.9 C48.4,20.6 49,20.6 49.7,20.7 C52.9,21 55.8,22.7 59,23.5 C62.1,24.3 66.1,23.9 67.7,21" id="Shape" stroke="#EAA938" stroke-width="6.4196"></path>
                <path d="M88.4,9.9 C87.3,11.3 86.2,13.1 86.9,14.8 C87.4,16.1 88.9,16.8 90.2,16.9 C92.5,17 94.6,15.9 96.4,14.5 C98.2,13.1 99.8,11.4 101.7,10.2 C103.8,11.1 104.9,13.4 105.2,15.6 C105.5,17.8 105.1,20.1 105,22.3 C105,22.9 104.9,23.5 105.2,24.1 C105.6,25 106.7,25.4 107.7,25.4 C108.7,25.4 109.6,24.9 110.5,24.5" id="Shape" stroke="#EAA938" stroke-width="6.4196"></path>
                <path d="M124.8,38.5 C126.7,37.6 128.1,36 129.7,34.7 C131.3,33.4 133.3,32.3 135.4,32.7 C137.7,33.1 139.3,35.2 140.4,37.4 C141.7,40.1 142.4,43 142.5,46 C142.6,48.4 142.4,51.2 144.3,52.7 C145,53.2 145.8,53.5 146.6,53.7 C149.4,54.5 152.2,55.4 155,56.2" id="Shape" stroke="#EAA938" stroke-width="6.4196"></path>
                <path d="M158.1,95.1 C156.3,95.2 154.4,94.5 152.9,95.4 C151.6,96.2 151.3,97.9 151.1,99.4 C150.6,102.8 150,106.1 149.3,109.4 C148.8,111.4 148,113.8 146.1,114.4" id="Shape" stroke="#EAA938" stroke-width="6.4196"></path>
                <path d="M128.5,138.1 C126.5,138.9 124.6,140 122.9,141.4 C121,143.1 119.5,145.3 118.8,147.8 C118.4,149.1 118.2,150.5 117.5,151.7 C116.9,152.9 115.7,154 114.3,153.9" id="Shape" stroke="#EAA938" stroke-width="6.4196"></path>
                <path d="M91.9,159.3 C91.5,156.2 89.5,153.2 86.7,151.8 C86.3,151.6 85.9,151.4 85.4,151.4 C84.9,151.4 84.4,151.7 84,152 C81.8,153.6 79.8,155.5 78,157.6 C72.8,152.4 66.3,148.5 59.2,146.4" id="Shape" stroke="#EAA938" stroke-width="6.4196"></path>
                <path d="M35.6,139.1 C35.1,138.5 35.2,137.5 35.3,136.7 C35.5,135 35.6,133.2 35.6,131.4 C35.6,130.2 35.5,128.9 34.6,128 C34.1,127.4 33.3,127.1 32.6,126.8 C28.8,125.2 25.2,123.4 21.7,121.4" id="Shape" stroke="#EAA938" stroke-width="6.4196"></path>
                <path d="M11.9,95.9 C15.1,94.6 17.1,91.3 18.5,88.1 C20.4,83.9 21.7,79.4 21.8,74.7 C22,70.1 20.9,65.3 18.2,61.6" id="Shape" stroke="#EAA938" stroke-width="6.4196"></path>
            </g>
            <g id="blue_ring" transform="translate(1469.000000, 748.000000)" stroke="#000000" stroke-width="5" fill="#2176FF" sketch:type="MSShapeGroup">
                <path d="M20.8,10.4 C-1.5,27 -6,58.5 10.6,80.8 C27.2,103.1 58.7,107.6 81,91 C103.3,74.4 107.8,42.9 91.2,20.6 C74.6,-1.7 43.1,-6.3 20.8,10.4 L20.8,10.4 Z M66.7,71.8 C55,80.5 38.5,78.1 29.7,66.4 C21,54.7 23.4,38.2 35.1,29.4 C46.8,20.6 63.3,23.1 72.1,34.8 C80.9,46.5 78.4,63.1 66.7,71.8 L66.7,71.8 Z" id="Shape"></path>
            </g>
            <g id="amoeba" transform="translate(1451.000000, 469.000000)" sketch:type="MSShapeGroup">
                <path d="M143.7,85.2 L26.3,62.7 C9.4,59.5 -1.7,43 1.5,26.2 L1.5,26.2 C4.7,9.3 21.2,-1.8 38,1.4 L155.4,23.9 C172.3,27.1 183.4,43.6 180.2,60.4 L180.2,60.4 C176.9,77.3 160.5,88.5 143.7,85.2 L143.7,85.2 Z" id="Shape" stroke="#202020" stroke-width="5" fill="#EA3939"></path>
                <g id="germs" transform="translate(13.000000, 15.000000)" fill="#FFFFFF">
                    <g id="germ_3_">
                        <path d="M31.7,1.7 C22.9,9.5 13.2,16 2.6,21.2 C-1.1,23 2.1,28.6 5.9,26.8 C16.9,21.3 27.1,14.5 36.3,6.3 C39.4,3.5 34.8,-1.1 31.7,1.7 L31.7,1.7 L31.7,1.7 Z" id="Shape"></path>
                    </g>
                    <g id="germ_2_" transform="translate(110.000000, 18.000000)">
                        <path d="M37.6,27.4 C22.6,28.9 8.9,18.1 6.7,3.3 C6.1,-0.8 -0.1,0.9 0.5,5 C3.1,22.4 20.1,35.6 37.7,33.9 C41.7,33.5 41.8,27 37.6,27.4 L37.6,27.4 L37.6,27.4 Z" id="Shape"></path>
                    </g>
                    <g id="germ_1_" transform="translate(64.000000, 10.000000)">
                        <path d="M6.7,16.7 C12,9.2 21.2,5.3 30.3,6.8 C34.4,7.5 36.1,1.2 32,0.6 C19.9,-1.4 8.2,3.5 1.1,13.5 C-1.2,16.8 4.3,20.1 6.7,16.7 L6.7,16.7 L6.7,16.7 Z" id="Shape"></path>
                    </g>
                    <g id="germ" transform="translate(30.000000, 32.000000)">
                        <path d="M47.8,7.1 C35.8,7.6 13.4,17.4 6.8,1.9 C5.2,-1.9 -0.4,1.4 1.2,5.2 C9.2,24.1 33.2,14.3 47.8,13.6 C51.9,13.4 52,7 47.8,7.1 L47.8,7.1 L47.8,7.1 Z" id="Shape"></path>
                    </g>
                </g>
            </g>
            <rect id="Rectangle-path" stroke="#000000" stroke-width="4.99995205" fill="#FFFFFF" sketch:type="MSShapeGroup" transform="translate(1451.947040, 1015.483150) rotate(45.000000) translate(-1451.947040, -1015.483150) " x="1423.99731" y="987.533418" width="55.8994639" height="55.8994639"></rect>
            <text id="Berlin,-September-26,-2015" fill="#060606" sketch:type="MSTextLayer" font-family="Helvetica" font-size="46.1663" font-weight="normal">
                <tspan x="685.2856" y="774.1816" fill="#000000">Berlin, September 26, 2015</tspan>
            </text>
            <path d="M644.6,1024.6 C643.6,1051.1 673.4,1076 690.3,1050 C701.7,1032.5 705,999 721.9,991.5 C746.1,980.7 775.8,1058.6 799.7,1002.4" id="blue_worm_1_" stroke="#2176FF" stroke-width="18" sketch:type="MSShapeGroup"></path>
        </g>
    </g>
</svg>